<?xml version="1.0" encoding="UTF-8"?>
<svg xmlns="http://www.w3.org/2000/svg" xmlns:xlink="http://www.w3.org/1999/xlink" width="189px" height="200px" viewBox="0 0 189 199" version="1.1">
<g id="surface1">
<path style=" stroke:none;fill-rule:nonzero;fill:rgb(0%,0%,0%);fill-opacity:1;" d="M 31.445312 73.097656 C 30.90625 73.304688 30.285156 73.675781 30.121094 73.964844 C 29.957031 74.253906 29.789062 82.875 29.789062 93.105469 C 29.789062 111.257812 29.832031 111.835938 30.617188 112.617188 C 31.445312 113.441406 31.984375 113.441406 58.046875 113.441406 C 74.472656 113.441406 84.859375 113.277344 85.230469 113.03125 C 85.644531 112.78125 80.640625 112.617188 70.710938 112.617188 C 53.082031 112.617188 52.878906 112.578125 49.359375 109.070312 C 48.160156 107.914062 47.085938 106.429688 46.917969 105.851562 L 46.671875 104.78125 L 33.101562 104.78125 L 33.101562 75.902344 L 83.578125 75.902344 L 83.578125 89.105469 L 86.472656 89.105469 L 86.472656 81.761719 C 86.472656 76.070312 86.347656 74.210938 85.894531 73.59375 C 85.316406 72.851562 84.527344 72.808594 58.875 72.769531 C 43.980469 72.726562 32.023438 72.890625 31.445312 73.097656 Z M 31.445312 73.097656 "/>
<path style=" stroke:none;fill-rule:nonzero;fill:rgb(0%,0%,0%);fill-opacity:1;" d="M 55.359375 97.644531 C 54.160156 97.851562 52.960938 99.128906 52.960938 100.242188 C 52.960938 101.605469 54.035156 102.386719 56.269531 102.636719 C 59.332031 103.007812 58.792969 103.75 55.566406 103.707031 C 53.082031 103.667969 52.960938 103.75 52.960938 104.65625 C 52.960938 105.5625 53.082031 105.605469 55.898438 105.605469 C 59.578125 105.605469 60.40625 105.191406 60.40625 103.335938 C 60.40625 101.6875 59.703125 101.191406 56.890625 100.777344 C 54.242188 100.449219 54.738281 99.625 57.636719 99.625 C 59.828125 99.625 59.992188 99.582031 59.992188 98.714844 C 59.992188 98.179688 59.746094 97.765625 59.414062 97.765625 C 59.125 97.765625 58.339844 97.683594 57.675781 97.601562 C 57.015625 97.519531 55.980469 97.519531 55.359375 97.644531 Z M 55.359375 97.644531 "/>
<path style=" stroke:none;fill-rule:nonzero;fill:rgb(0%,0%,0%);fill-opacity:1;" d="M 107.988281 97.890625 C 106.167969 98.511719 105.421875 99.914062 105.671875 102.304688 C 105.917969 104.78125 106.953125 105.605469 110.015625 105.605469 C 111.421875 105.605469 112.703125 105.359375 113.242188 104.988281 C 114.980469 103.789062 114.980469 99.542969 113.242188 98.425781 C 111.878906 97.5625 109.601562 97.3125 107.988281 97.890625 Z M 112.042969 99.914062 C 112.332031 100.203125 112.539062 100.984375 112.539062 101.6875 C 112.539062 103.335938 111.878906 103.957031 110.058594 103.957031 C 108.238281 103.957031 107.574219 103.335938 107.574219 101.6875 C 107.574219 100.035156 108.238281 99.417969 110.058594 99.417969 C 110.882812 99.417969 111.753906 99.625 112.042969 99.914062 Z M 112.042969 99.914062 "/>
<path style=" stroke:none;fill-rule:nonzero;fill:rgb(0%,0%,0%);fill-opacity:1;" d="M 63.71875 101.6875 L 63.71875 105.605469 L 67.480469 105.605469 C 71.125 105.605469 71.207031 105.5625 71.082031 104.65625 C 70.957031 103.832031 70.710938 103.75 68.390625 103.625 L 65.785156 103.5 L 65.785156 100.65625 C 65.785156 97.851562 65.746094 97.765625 64.75 97.765625 C 63.71875 97.765625 63.71875 97.765625 63.71875 101.6875 Z M 63.71875 101.6875 "/>
<path style=" stroke:none;fill-rule:nonzero;fill:rgb(0%,0%,0%);fill-opacity:1;" d="M 75.507812 101.355469 C 74.597656 103.296875 73.8125 105.070312 73.730469 105.273438 C 73.441406 106.019531 75.550781 105.5625 76.046875 104.78125 C 76.417969 104.160156 77 103.957031 78.363281 103.957031 C 79.851562 103.957031 80.265625 104.121094 80.472656 104.78125 C 80.640625 105.316406 81.09375 105.605469 81.796875 105.605469 C 82.460938 105.605469 82.75 105.441406 82.625 105.070312 C 82.5 104.820312 81.714844 103.046875 80.886719 101.148438 C 79.523438 98.179688 79.191406 97.765625 78.238281 97.765625 C 77.289062 97.765625 76.957031 98.179688 75.507812 101.355469 Z M 78.941406 101.273438 C 79.398438 102.222656 79.355469 102.304688 78.40625 102.304688 C 77.328125 102.304688 77.207031 102.015625 77.617188 100.902344 C 77.992188 99.953125 78.40625 100.078125 78.941406 101.273438 Z M 78.941406 101.273438 "/>
<path style=" stroke:none;fill-rule:nonzero;fill:rgb(0%,0%,0%);fill-opacity:1;" d="M 83.992188 98.140625 C 83.992188 98.304688 84.734375 100.078125 85.644531 102.058594 C 87.050781 105.070312 87.425781 105.605469 88.292969 105.605469 C 89.121094 105.605469 89.535156 105.027344 90.984375 102.058594 C 91.894531 100.117188 92.679688 98.34375 92.679688 98.140625 C 92.679688 97.933594 92.308594 97.765625 91.851562 97.765625 C 91.191406 97.765625 90.695312 98.46875 89.660156 100.738281 L 88.292969 103.707031 L 86.96875 100.738281 C 85.976562 98.46875 85.4375 97.765625 84.816406 97.765625 C 84.363281 97.765625 83.992188 97.933594 83.992188 98.140625 Z M 83.992188 98.140625 "/>
<path style=" stroke:none;fill-rule:nonzero;fill:rgb(0%,0%,0%);fill-opacity:1;" d="M 95.574219 101.6875 C 95.574219 105.316406 95.617188 105.605469 96.402344 105.605469 C 97.066406 105.605469 97.230469 105.316406 97.230469 104.160156 C 97.230469 102.222656 98.429688 102.222656 100.25 104.203125 C 101.203125 105.273438 101.863281 105.648438 102.566406 105.523438 C 103.519531 105.398438 103.519531 105.359375 102.03125 103.625 C 100.332031 101.605469 100.292969 101.398438 101.160156 100.65625 C 101.535156 100.367188 102.195312 99.582031 102.652344 98.921875 L 103.476562 97.765625 L 102.320312 97.765625 C 101.492188 97.765625 100.871094 98.179688 100.128906 99.210938 C 99.507812 100.078125 98.71875 100.65625 98.183594 100.65625 C 97.355469 100.65625 97.230469 100.449219 97.230469 99.210938 C 97.230469 98.054688 97.066406 97.765625 96.402344 97.765625 C 95.617188 97.765625 95.574219 98.054688 95.574219 101.6875 Z M 95.574219 101.6875 "/>
<path style=" stroke:none;fill-rule:nonzero;fill:rgb(0%,0%,0%);fill-opacity:1;" d="M 51.511719 116.289062 C 51.304688 117.816406 50.890625 118.601562 49.855469 119.632812 C 49.070312 120.375 48.53125 121.15625 48.65625 121.363281 C 48.78125 121.527344 53.042969 121.695312 58.171875 121.695312 C 66.035156 121.695312 67.441406 121.609375 67.441406 121.074219 C 67.441406 120.746094 67.070312 120.292969 66.570312 120.042969 C 65.539062 119.464844 64.542969 117.238281 64.542969 115.503906 L 64.542969 114.269531 L 51.800781 114.269531 Z M 51.511719 116.289062 "/>
<path style=" stroke:none;fill-rule:nonzero;fill:rgb(0%,0%,0%);fill-opacity:1;" d="M 34.421875 125.488281 C 33.222656 126.933594 32.273438 128.292969 32.273438 128.582031 C 32.273438 128.996094 37.527344 129.117188 58.089844 129.117188 C 72.324219 129.117188 84.03125 128.953125 84.15625 128.789062 C 84.28125 128.582031 83.496094 127.222656 82.417969 125.695312 L 80.472656 122.929688 L 36.574219 122.929688 Z M 39.097656 124.167969 C 38.976562 124.375 38.5625 124.582031 38.230469 124.582031 C 37.898438 124.582031 37.652344 124.375 37.652344 124.167969 C 37.652344 123.921875 38.023438 123.757812 38.519531 123.757812 C 38.976562 123.757812 39.222656 123.921875 39.097656 124.167969 Z M 42.617188 124.167969 C 42.617188 124.375 42.242188 124.582031 41.789062 124.582031 C 41.332031 124.582031 40.960938 124.375 40.960938 124.167969 C 40.960938 123.921875 41.332031 123.757812 41.789062 123.757812 C 42.242188 123.757812 42.617188 123.921875 42.617188 124.167969 Z M 45.925781 124.167969 C 45.925781 124.375 45.554688 124.582031 45.097656 124.582031 C 44.644531 124.582031 44.269531 124.375 44.269531 124.167969 C 44.269531 123.921875 44.644531 123.757812 45.097656 123.757812 C 45.554688 123.757812 45.925781 123.921875 45.925781 124.167969 Z M 49.441406 124.167969 C 49.320312 124.375 48.820312 124.582031 48.367188 124.582031 C 47.953125 124.582031 47.582031 124.375 47.582031 124.167969 C 47.582031 123.921875 48.078125 123.757812 48.65625 123.757812 C 49.234375 123.757812 49.609375 123.921875 49.441406 124.167969 Z M 52.753906 124.167969 C 52.628906 124.375 52.132812 124.582031 51.675781 124.582031 C 51.261719 124.582031 50.890625 124.375 50.890625 124.167969 C 50.890625 123.921875 51.386719 123.757812 51.964844 123.757812 C 52.546875 123.757812 52.917969 123.921875 52.753906 124.167969 Z M 56.0625 124.167969 C 55.9375 124.375 55.441406 124.582031 54.988281 124.582031 C 54.574219 124.582031 54.199219 124.375 54.199219 124.167969 C 54.199219 123.921875 54.699219 123.757812 55.277344 123.757812 C 55.855469 123.757812 56.226562 123.921875 56.0625 124.167969 Z M 59.371094 124.167969 C 59.25 124.375 58.875 124.582031 58.546875 124.582031 C 58.214844 124.582031 57.84375 124.375 57.71875 124.167969 C 57.550781 123.921875 57.925781 123.757812 58.546875 123.757812 C 59.164062 123.757812 59.539062 123.921875 59.371094 124.167969 Z M 62.890625 124.167969 C 62.890625 124.375 62.515625 124.582031 62.105469 124.582031 C 61.648438 124.582031 61.152344 124.375 61.027344 124.167969 C 60.863281 123.921875 61.234375 123.757812 61.8125 123.757812 C 62.394531 123.757812 62.890625 123.921875 62.890625 124.167969 Z M 66.199219 124.167969 C 66.199219 124.375 65.828125 124.582031 65.414062 124.582031 C 64.957031 124.582031 64.460938 124.375 64.335938 124.167969 C 64.171875 123.921875 64.542969 123.757812 65.125 123.757812 C 65.703125 123.757812 66.199219 123.921875 66.199219 124.167969 Z M 69.675781 124.417969 C 70.296875 126.023438 70.007812 126.230469 67.234375 126.230469 C 65.703125 126.230469 64.542969 126.066406 64.542969 125.820312 C 64.542969 125.570312 65.289062 125.40625 66.199219 125.40625 C 67.566406 125.40625 67.855469 125.28125 67.855469 124.582031 C 67.855469 123.589844 69.304688 123.425781 69.675781 124.417969 Z M 72.820312 124.167969 C 72.820312 124.375 72.445312 124.582031 71.992188 124.582031 C 71.535156 124.582031 71.164062 124.375 71.164062 124.167969 C 71.164062 123.921875 71.535156 123.757812 71.992188 123.757812 C 72.445312 123.757812 72.820312 123.921875 72.820312 124.167969 Z M 76.128906 124.167969 C 76.128906 124.375 75.757812 124.582031 75.300781 124.582031 C 74.847656 124.582031 74.472656 124.375 74.472656 124.167969 C 74.472656 123.921875 74.847656 123.757812 75.300781 123.757812 C 75.757812 123.757812 76.128906 123.921875 76.128906 124.167969 Z M 79.441406 124.167969 C 79.441406 124.375 79.066406 124.582031 78.613281 124.582031 C 78.15625 124.582031 77.785156 124.375 77.785156 124.167969 C 77.785156 123.921875 78.15625 123.757812 78.613281 123.757812 C 79.066406 123.757812 79.441406 123.921875 79.441406 124.167969 Z M 38.066406 125.820312 C 38.066406 126.023438 37.566406 126.230469 36.988281 126.230469 C 36.410156 126.230469 36.039062 126.066406 36.203125 125.820312 C 36.328125 125.570312 36.824219 125.40625 37.277344 125.40625 C 37.691406 125.40625 38.066406 125.570312 38.066406 125.820312 Z M 41.582031 125.820312 C 41.457031 126.023438 40.960938 126.230469 40.507812 126.230469 C 40.050781 126.230469 39.800781 126.023438 39.925781 125.820312 C 40.050781 125.570312 40.546875 125.40625 41.003906 125.40625 C 41.457031 125.40625 41.707031 125.570312 41.582031 125.820312 Z M 45.097656 125.820312 C 45.097656 126.023438 44.601562 126.230469 44.023438 126.230469 C 43.445312 126.230469 43.070312 126.066406 43.238281 125.820312 C 43.359375 125.570312 43.855469 125.40625 44.3125 125.40625 C 44.726562 125.40625 45.097656 125.570312 45.097656 125.820312 Z M 48.820312 125.820312 C 48.820312 126.023438 48.367188 126.230469 47.789062 126.230469 C 47.207031 126.230469 46.753906 126.023438 46.753906 125.820312 C 46.753906 125.570312 47.207031 125.40625 47.789062 125.40625 C 48.367188 125.40625 48.820312 125.570312 48.820312 125.820312 Z M 52.132812 125.820312 C 52.132812 126.023438 51.761719 126.230469 51.304688 126.230469 C 50.847656 126.230469 50.476562 126.023438 50.476562 125.820312 C 50.476562 125.570312 50.847656 125.40625 51.304688 125.40625 C 51.761719 125.40625 52.132812 125.570312 52.132812 125.820312 Z M 55.855469 125.820312 C 55.855469 126.023438 55.359375 126.230469 54.78125 126.230469 C 54.199219 126.230469 53.828125 126.066406 53.992188 125.820312 C 54.117188 125.570312 54.613281 125.40625 55.070312 125.40625 C 55.484375 125.40625 55.855469 125.570312 55.855469 125.820312 Z M 59.164062 125.820312 C 59.164062 126.023438 58.792969 126.230469 58.339844 126.230469 C 57.882812 126.230469 57.511719 126.023438 57.511719 125.820312 C 57.511719 125.570312 57.882812 125.40625 58.339844 125.40625 C 58.792969 125.40625 59.164062 125.570312 59.164062 125.820312 Z M 62.890625 125.820312 C 62.890625 126.023438 62.394531 126.230469 61.8125 126.230469 C 61.234375 126.230469 60.863281 126.066406 61.027344 125.820312 C 61.152344 125.570312 61.648438 125.40625 62.105469 125.40625 C 62.515625 125.40625 62.890625 125.570312 62.890625 125.820312 Z M 73.441406 125.820312 C 73.605469 126.066406 73.234375 126.230469 72.652344 126.230469 C 72.074219 126.230469 71.578125 126.023438 71.578125 125.820312 C 71.578125 125.570312 71.949219 125.40625 72.363281 125.40625 C 72.820312 125.40625 73.316406 125.570312 73.441406 125.820312 Z M 76.957031 125.820312 C 76.957031 126.023438 76.585938 126.230469 76.128906 126.230469 C 75.675781 126.230469 75.300781 126.023438 75.300781 125.820312 C 75.300781 125.570312 75.675781 125.40625 76.128906 125.40625 C 76.585938 125.40625 76.957031 125.570312 76.957031 125.820312 Z M 80.472656 125.820312 C 80.640625 126.066406 80.265625 126.230469 79.6875 126.230469 C 79.109375 126.230469 78.613281 126.023438 78.613281 125.820312 C 78.613281 125.570312 78.984375 125.40625 79.398438 125.40625 C 79.851562 125.40625 80.351562 125.570312 80.472656 125.820312 Z M 36.617188 127.882812 C 36.492188 128.085938 35.996094 128.292969 35.539062 128.292969 C 35.128906 128.292969 34.753906 128.085938 34.753906 127.882812 C 34.753906 127.632812 35.25 127.46875 35.832031 127.46875 C 36.410156 127.46875 36.78125 127.632812 36.617188 127.882812 Z M 40.339844 127.882812 C 40.214844 128.085938 39.71875 128.292969 39.265625 128.292969 C 38.851562 128.292969 38.480469 128.085938 38.480469 127.882812 C 38.480469 127.632812 38.976562 127.46875 39.554688 127.46875 C 40.132812 127.46875 40.507812 127.632812 40.339844 127.882812 Z M 44.0625 127.882812 C 43.941406 128.085938 43.445312 128.292969 42.988281 128.292969 C 42.574219 128.292969 42.203125 128.085938 42.203125 127.882812 C 42.203125 127.632812 42.699219 127.46875 43.277344 127.46875 C 43.855469 127.46875 44.230469 127.632812 44.0625 127.882812 Z M 62.890625 127.882812 C 62.890625 128.128906 59.785156 128.292969 54.40625 128.292969 C 49.027344 128.292969 45.925781 128.128906 45.925781 127.882812 C 45.925781 127.632812 49.027344 127.46875 54.40625 127.46875 C 59.785156 127.46875 62.890625 127.632812 62.890625 127.882812 Z M 66.613281 127.882812 C 66.613281 128.085938 66.242188 128.292969 65.828125 128.292969 C 65.371094 128.292969 64.875 128.085938 64.75 127.882812 C 64.585938 127.632812 64.957031 127.46875 65.539062 127.46875 C 66.117188 127.46875 66.613281 127.632812 66.613281 127.882812 Z M 70.335938 127.882812 C 70.335938 128.085938 69.964844 128.292969 69.550781 128.292969 C 69.097656 128.292969 68.597656 128.085938 68.476562 127.882812 C 68.308594 127.632812 68.683594 127.46875 69.261719 127.46875 C 69.839844 127.46875 70.335938 127.632812 70.335938 127.882812 Z M 74.0625 127.882812 C 74.0625 128.085938 73.6875 128.292969 73.273438 128.292969 C 72.820312 128.292969 72.324219 128.085938 72.199219 127.882812 C 72.035156 127.632812 72.40625 127.46875 72.984375 127.46875 C 73.5625 127.46875 74.0625 127.632812 74.0625 127.882812 Z M 77.785156 127.882812 C 77.785156 128.085938 77.414062 128.292969 77 128.292969 C 76.542969 128.292969 76.046875 128.085938 75.921875 127.882812 C 75.757812 127.632812 76.128906 127.46875 76.707031 127.46875 C 77.289062 127.46875 77.785156 127.632812 77.785156 127.882812 Z M 81.507812 127.882812 C 81.507812 128.085938 81.136719 128.292969 80.722656 128.292969 C 80.265625 128.292969 79.769531 128.085938 79.644531 127.882812 C 79.480469 127.632812 79.851562 127.46875 80.433594 127.46875 C 81.011719 127.46875 81.507812 127.632812 81.507812 127.882812 Z M 81.507812 127.882812 "/>
</g>
</svg>
