<?xml version="1.0" encoding="UTF-8"?>
<!DOCTYPE svg PUBLIC "-//W3C//DTD SVG 1.1//EN" "http://www.w3.org/Graphics/SVG/1.1/DTD/svg11.dtd">
<svg xmlns="http://www.w3.org/2000/svg" version="1.1" width="205px" height="292px" style="shape-rendering:geometricPrecision; text-rendering:geometricPrecision; image-rendering:optimizeQuality; fill-rule:evenodd; clip-rule:evenodd" xmlns:xlink="http://www.w3.org/1999/xlink">
<g><path style="opacity:1" fill="#242332" d="M -0.5,-0.5 C 67.8333,-0.5 136.167,-0.5 204.5,-0.5C 204.5,96.8333 204.5,194.167 204.5,291.5C 136.167,291.5 67.8333,291.5 -0.5,291.5C -0.5,194.167 -0.5,96.8333 -0.5,-0.5 Z"/></g>
<g><path style="opacity:1" fill="#fbfbfb" d="M 7.5,1.5 C 70.5831,1.00738 133.583,1.50738 196.5,3C 197.701,3.90252 198.535,5.06919 199,6.5C 199.989,50.917 199.656,95.2503 198,139.5C 196.786,141.049 195.286,142.215 193.5,143C 131.084,143.992 68.7511,143.659 6.5,142C 4.95118,140.786 3.78451,139.286 3,137.5C 2.33333,93.8333 2.33333,50.1667 3,6.5C 4.02496,4.31305 5.52496,2.64638 7.5,1.5 Z"/></g>
<g><path style="opacity:1" fill="#222130" d="M 14.5,12.5 C 72.5,12.5 130.5,12.5 188.5,12.5C 188.5,45.5 188.5,78.5 188.5,111.5C 130.5,111.5 72.5,111.5 14.5,111.5C 14.5,103.5 14.5,95.5 14.5,87.5C 17.5271,86.6537 20.3605,85.3204 23,83.5C 25.2096,84.7488 27.3763,84.5822 29.5,83C 32.0429,78.7173 35.5429,75.5506 40,73.5C 45.5793,66.9246 44.0793,64.4246 35.5,66C 28.4607,69.4583 21.6273,73.2916 15,77.5C 14.5001,65.8381 14.3335,54.1714 14.5,42.5C 17.5271,41.6537 20.3605,40.3204 23,38.5C 23.6667,39.1667 24.3333,39.8333 25,40.5C 29.0406,38.4151 32.2073,35.4151 34.5,31.5C 38.9122,30.1875 41.9122,27.3542 43.5,23C 43.3552,22.228 43.0219,21.5613 42.5,21C 39.8333,20.3333 37.1667,20.3333 34.5,21C 28.3824,25.3835 21.8824,29.2169 15,32.5C 14.5004,25.8417 14.3337,19.175 14.5,12.5 Z"/></g>
<g><path style="opacity:1" fill="#292836" d="M 14.5,12.5 C 14.3337,19.175 14.5004,25.8417 15,32.5C 21.8824,29.2169 28.3824,25.3835 34.5,21C 37.1667,20.3333 39.8333,20.3333 42.5,21C 43.0219,21.5613 43.3552,22.228 43.5,23C 41.9122,27.3542 38.9122,30.1875 34.5,31.5C 32.2073,35.4151 29.0406,38.4151 25,40.5C 24.3333,39.8333 23.6667,39.1667 23,38.5C 20.3605,40.3204 17.5271,41.6537 14.5,42.5C 14.3335,54.1714 14.5001,65.8381 15,77.5C 21.6273,73.2916 28.4607,69.4583 35.5,66C 44.0793,64.4246 45.5793,66.9246 40,73.5C 35.5429,75.5506 32.0429,78.7173 29.5,83C 27.3763,84.5822 25.2096,84.7488 23,83.5C 20.3605,85.3204 17.5271,86.6537 14.5,87.5C 14.5,95.5 14.5,103.5 14.5,111.5C 14.1667,111.5 13.8333,111.5 13.5,111.5C 13.1684,78.3291 13.5017,45.3291 14.5,12.5 Z"/></g>
<g><path style="opacity:1" fill="#6d6c76" d="M 188.5,12.5 C 189.498,45.6625 189.832,78.9958 189.5,112.5C 130.664,112.832 71.9976,112.499 13.5,111.5C 13.8333,111.5 14.1667,111.5 14.5,111.5C 72.5,111.5 130.5,111.5 188.5,111.5C 188.5,78.5 188.5,45.5 188.5,12.5 Z"/></g>
<g><path style="opacity:1" fill="#2b2a39" d="M 98.5,126.5 C 104.831,125.029 107.998,127.362 108,133.5C 105.314,137.977 101.814,138.644 97.5,135.5C 95.992,132.231 96.3254,129.231 98.5,126.5 Z"/></g>
<g><path style="opacity:1" fill="#fdfdfd" d="M 77.5,145.5 C 92.8333,145.5 108.167,145.5 123.5,145.5C 121.55,154.924 124.55,162.258 132.5,167.5C 133.429,168.689 133.762,170.022 133.5,171.5C 111.831,171.667 90.1641,171.5 68.5,171C 67.5494,170.282 67.3828,169.449 68,168.5C 76.6391,163.209 79.8058,155.542 77.5,145.5 Z"/></g>
<g><path style="opacity:1" fill="#f5f5f6" d="M 26.5,175.5 C 77.1678,175.333 127.834,175.5 178.5,176C 183.065,182.388 187.398,188.888 191.5,195.5C 191.392,196.442 191.059,197.275 190.5,198C 130.833,198.667 71.1667,198.667 11.5,198C 10.4464,196.612 10.2797,195.112 11,193.5C 16.3763,187.628 21.543,181.628 26.5,175.5 Z"/></g>
<g><path style="opacity:1" fill="#929299" d="M 88.5,179.5 C 90.2646,178.539 92.2646,178.205 94.5,178.5C 94.7373,179.791 94.404,180.791 93.5,181.5C 92.4479,179.744 90.7812,179.077 88.5,179.5 Z"/></g>
<g><path style="opacity:1" fill="#898991" d="M 111.5,179.5 C 113.265,178.539 115.265,178.205 117.5,178.5C 117.737,179.791 117.404,180.791 116.5,181.5C 115.448,179.744 113.781,179.077 111.5,179.5 Z"/></g>
<g><path style="opacity:1" fill="#93939a" d="M 140.5,179.5 C 138.265,179.205 136.265,179.539 134.5,180.5C 133.957,180.44 133.624,180.107 133.5,179.5C 135.973,178.203 138.307,178.203 140.5,179.5 Z"/></g>
<g><path style="opacity:1" fill="#88878f" d="M 151.5,179.5 C 149.219,179.077 147.552,179.744 146.5,181.5C 145.596,180.791 145.263,179.791 145.5,178.5C 147.735,178.205 149.735,178.539 151.5,179.5 Z"/></g>
<g><path style="opacity:1" fill="#40404d" d="M 42.5,178.5 C 44.288,178.215 45.9547,178.548 47.5,179.5C 45.8779,181.623 43.8779,181.956 41.5,180.5C 41.8627,179.817 42.1961,179.15 42.5,178.5 Z"/></g>
<g><path style="opacity:1" fill="#42424e" d="M 65.5,178.5 C 67.1667,178.5 68.8333,178.5 70.5,178.5C 70.5,179.5 70.5,180.5 70.5,181.5C 68.396,181.799 66.396,181.466 64.5,180.5C 64.8627,179.817 65.1961,179.15 65.5,178.5 Z"/></g>
<g><path style="opacity:1" fill="#42424f" d="M 99.5,178.5 C 101.5,178.5 103.5,178.5 105.5,178.5C 105.5,179.5 105.5,180.5 105.5,181.5C 103.5,181.5 101.5,181.5 99.5,181.5C 99.5,180.5 99.5,179.5 99.5,178.5 Z"/></g>
<g><path style="opacity:1" fill="#41414e" d="M 122.5,178.5 C 124.5,178.5 126.5,178.5 128.5,178.5C 128.5,179.5 128.5,180.5 128.5,181.5C 126.5,181.5 124.5,181.5 122.5,181.5C 122.5,180.5 122.5,179.5 122.5,178.5 Z"/></g>
<g><path style="opacity:1" fill="#474653" d="M 157.5,178.5 C 159.977,178.051 161.977,178.717 163.5,180.5C 161.604,181.466 159.604,181.799 157.5,181.5C 157.5,180.5 157.5,179.5 157.5,178.5 Z"/></g>
<g><path style="opacity:1" fill="#353542" d="M 30.5,179.5 C 32.1992,179.34 33.8659,179.506 35.5,180C 33.728,181.487 31.728,181.82 29.5,181C 30.056,180.617 30.3893,180.117 30.5,179.5 Z"/></g>
<g><path style="opacity:1" fill="#383845" d="M 53.5,179.5 C 55.288,179.215 56.9547,179.548 58.5,180.5C 56.5787,181.641 54.5787,181.808 52.5,181C 53.056,180.617 53.3893,180.117 53.5,179.5 Z"/></g>
<g><path style="opacity:1" fill="#4d4c58" d="M 76.5,178.5 C 78.5,178.5 80.5,178.5 82.5,178.5C 82.5,179.5 82.5,180.5 82.5,181.5C 80.1432,181.663 77.8098,181.497 75.5,181C 76.2524,180.329 76.5858,179.496 76.5,178.5 Z"/></g>
<g><path style="opacity:1" fill="#3a3a47" d="M 88.5,179.5 C 90.7812,179.077 92.4479,179.744 93.5,181.5C 91.396,181.799 89.396,181.466 87.5,180.5C 87.6236,179.893 87.9569,179.56 88.5,179.5 Z"/></g>
<g><path style="opacity:1" fill="#403f4c" d="M 111.5,179.5 C 113.781,179.077 115.448,179.744 116.5,181.5C 114.396,181.799 112.396,181.466 110.5,180.5C 110.624,179.893 110.957,179.56 111.5,179.5 Z"/></g>
<g><path style="opacity:1" fill="#363644" d="M 151.5,179.5 C 150.448,181.256 148.781,181.923 146.5,181.5C 147.552,179.744 149.219,179.077 151.5,179.5 Z"/></g>
<g><path style="opacity:1" fill="#393846" d="M 169.5,179.5 C 171.75,179.181 173.75,179.681 175.5,181C 174.5,181.167 173.5,181.333 172.5,181.5C 170.97,181.36 169.97,180.693 169.5,179.5 Z"/></g>
<g><path style="opacity:1" fill="#272635" d="M 140.5,179.5 C 140.674,181.861 141.007,184.194 141.5,186.5C 135.69,187.49 129.69,187.823 123.5,187.5C 127.084,185.882 131.084,184.882 135.5,184.5C 134.754,183.264 134.421,181.93 134.5,180.5C 136.265,179.539 138.265,179.205 140.5,179.5 Z"/></g>
<g><path style="opacity:1" fill="#2a2937" d="M 25.5,185.5 C 27.5273,185.338 29.5273,185.505 31.5,186C 29.3863,187.518 27.053,187.851 24.5,187C 25.056,186.617 25.3893,186.117 25.5,185.5 Z"/></g>
<g><path style="opacity:1" fill="#2b2a38" d="M 37.5,185.5 C 39.604,185.201 41.604,185.534 43.5,186.5C 42.5,186.833 41.5,187.167 40.5,187.5C 38.9704,187.36 37.9704,186.693 37.5,185.5 Z"/></g>
<g><path style="opacity:1" fill="#252433" d="M 49.5,185.5 C 51.604,185.201 53.604,185.534 55.5,186.5C 54.5,186.833 53.5,187.167 52.5,187.5C 50.9704,187.36 49.9704,186.693 49.5,185.5 Z"/></g>
<g><path style="opacity:1" fill="#2b2a38" d="M 61.5,185.5 C 63.8568,185.337 66.1902,185.503 68.5,186C 65.816,188.145 63.4827,187.978 61.5,185.5 Z"/></g>
<g><path style="opacity:1" fill="#2f2e3c" d="M 74.5,185.5 C 76.604,185.201 78.604,185.534 80.5,186.5C 78.2351,187.647 75.9018,187.814 73.5,187C 74.056,186.617 74.3893,186.117 74.5,185.5 Z"/></g>
<g><path style="opacity:1" fill="#222130" d="M 86.5,185.5 C 88.604,185.201 90.604,185.534 92.5,186.5C 91.5,186.833 90.5,187.167 89.5,187.5C 87.9704,187.36 86.9704,186.693 86.5,185.5 Z"/></g>
<g><path style="opacity:1" fill="#232231" d="M 98.5,185.5 C 100.604,185.201 102.604,185.534 104.5,186.5C 103.5,186.833 102.5,187.167 101.5,187.5C 99.9704,187.36 98.9704,186.693 98.5,185.5 Z"/></g>
<g><path style="opacity:1" fill="#2c2b3a" d="M 110.5,185.5 C 112.924,185.192 115.257,185.526 117.5,186.5C 116.333,186.833 115.167,187.167 114,187.5C 112.319,187.392 111.152,186.725 110.5,185.5 Z"/></g>
<g><path style="opacity:1" fill="#343341" d="M 147.5,185.5 C 149.924,185.192 152.257,185.526 154.5,186.5C 153.333,186.833 152.167,187.167 151,187.5C 149.319,187.392 148.152,186.725 147.5,185.5 Z"/></g>
<g><path style="opacity:1" fill="#262534" d="M 160.5,185.5 C 162.604,185.201 164.604,185.534 166.5,186.5C 165.5,186.833 164.5,187.167 163.5,187.5C 161.97,187.36 160.97,186.693 160.5,185.5 Z"/></g>
<g><path style="opacity:1" fill="#272634" d="M 172.5,185.5 C 174.604,185.201 176.604,185.534 178.5,186.5C 177.5,186.833 176.5,187.167 175.5,187.5C 173.97,187.36 172.97,186.693 172.5,185.5 Z"/></g>
<g><path style="opacity:1" fill="#b9b8bd" d="M 141.5,186.5 C 142.043,186.56 142.376,186.893 142.5,187.5C 136.012,188.817 129.678,188.817 123.5,187.5C 129.69,187.823 135.69,187.49 141.5,186.5 Z"/></g>
<g><path style="opacity:1" fill="#52515d" d="M 20.5,191.5 C 22.8568,191.337 25.1902,191.503 27.5,192C 25.253,194.542 22.5863,195.042 19.5,193.5C 19.8627,192.817 20.1961,192.15 20.5,191.5 Z"/></g>
<g><path style="opacity:1" fill="#50505c" d="M 162.5,191.5 C 164.833,191.5 167.167,191.5 169.5,191.5C 169.5,192.5 169.5,193.5 169.5,194.5C 167.167,194.5 164.833,194.5 162.5,194.5C 162.5,193.5 162.5,192.5 162.5,191.5 Z"/></g>
<g><path style="opacity:1" fill="#41404d" d="M 33.5,191.5 C 35.604,191.201 37.604,191.534 39.5,192.5C 38.6519,193.991 37.3186,194.658 35.5,194.5C 32.7614,194.453 32.0947,193.453 33.5,191.5 Z"/></g>
<g><path style="opacity:1" fill="#31303e" d="M 52.5,193.5 C 50.2646,193.795 48.2646,193.461 46.5,192.5C 47.2739,191.853 48.2739,191.52 49.5,191.5C 51.0296,191.64 52.0296,192.307 52.5,193.5 Z"/></g>
<g><path style="opacity:1" fill="#403f4c" d="M 59.5,191.5 C 78.8333,191.5 98.1667,191.5 117.5,191.5C 117.5,192.5 117.5,193.5 117.5,194.5C 97.822,194.833 78.1554,194.5 58.5,193.5C 58.8627,192.817 59.1961,192.15 59.5,191.5 Z"/></g>
<g><path style="opacity:1" fill="#41404d" d="M 123.5,191.5 C 125.833,191.5 128.167,191.5 130.5,191.5C 130.5,192.5 130.5,193.5 130.5,194.5C 128.167,194.5 125.833,194.5 123.5,194.5C 123.5,193.5 123.5,192.5 123.5,191.5 Z"/></g>
<g><path style="opacity:1" fill="#464551" d="M 136.5,191.5 C 138.833,191.5 141.167,191.5 143.5,191.5C 143.5,192.5 143.5,193.5 143.5,194.5C 141.167,194.5 138.833,194.5 136.5,194.5C 136.5,193.5 136.5,192.5 136.5,191.5 Z"/></g>
<g><path style="opacity:1" fill="#444350" d="M 149.5,191.5 C 151.833,191.5 154.167,191.5 156.5,191.5C 156.5,192.5 156.5,193.5 156.5,194.5C 154.167,194.5 151.833,194.5 149.5,194.5C 149.5,193.5 149.5,192.5 149.5,191.5 Z"/></g>
<g><path style="opacity:1" fill="#41404d" d="M 175.5,191.5 C 177.527,191.338 179.527,191.505 181.5,192C 181.957,192.414 182.291,192.914 182.5,193.5C 180.579,194.641 178.579,194.808 176.5,194C 175.748,193.329 175.414,192.496 175.5,191.5 Z"/></g>
<g><path style="opacity:1" fill="#797881" d="M 46.5,192.5 C 48.2646,193.461 50.2646,193.795 52.5,193.5C 50.3066,194.797 47.9732,194.797 45.5,193.5C 45.6236,192.893 45.9569,192.56 46.5,192.5 Z"/></g>
<g><path style="opacity:1" fill="#d2d2d5" d="M 51.5,224.5 C 51.5,234.833 51.5,245.167 51.5,255.5C 57.1667,255.5 62.8333,255.5 68.5,255.5C 62.69,256.49 56.69,256.823 50.5,256.5C 50.1722,245.654 50.5056,234.987 51.5,224.5 Z"/></g>
<g><path style="opacity:1" fill="#fcfcfc" d="M 51.5,224.5 C 52.5,224.5 53.5,224.5 54.5,224.5C 54.5,234.167 54.5,243.833 54.5,253.5C 59.1667,254.167 63.8333,254.833 68.5,255.5C 62.8333,255.5 57.1667,255.5 51.5,255.5C 51.5,245.167 51.5,234.833 51.5,224.5 Z"/></g>
<g><path style="opacity:1" fill="#e6e6e8" d="M 81.5,224.5 C 83.7659,224.141 85.5993,224.808 87,226.5C 90.4016,236.205 93.9016,245.872 97.5,255.5C 95.9936,256.747 94.4936,256.747 93,255.5C 92.0251,252.24 90.8584,249.073 89.5,246C 85.1667,245.333 80.8333,245.333 76.5,246C 74.9617,249.576 73.295,253.076 71.5,256.5C 71.1667,255.833 70.8333,255.167 70.5,254.5C 74.1736,244.477 77.8402,234.477 81.5,224.5 Z"/></g>
<g><path style="opacity:1" fill="#ececed" d="M 97.5,224.5 C 99.1439,224.286 100.644,224.62 102,225.5C 105.138,233.913 108.471,242.246 112,250.5C 115.465,241.91 118.632,233.244 121.5,224.5C 122.675,224.281 123.675,224.614 124.5,225.5C 120.373,235.048 116.54,244.714 113,254.5C 111.667,257.167 110.333,257.167 109,254.5C 105.258,244.437 101.425,234.437 97.5,224.5 Z"/></g>
<g><path style="opacity:1" fill="#ebebec" d="M 129.5,224.5 C 130.833,224.5 132.167,224.5 133.5,224.5C 133.176,228.555 133.509,232.555 134.5,236.5C 139.025,232.808 143.692,229.308 148.5,226C 150.365,224.699 152.365,224.365 154.5,225C 148.5,229.333 142.5,233.667 136.5,238C 143.167,244 149.833,250 156.5,256C 154.5,256.667 152.5,256.667 150.5,256C 145,251.167 139.5,246.333 134,241.5C 133.501,246.489 133.334,251.489 133.5,256.5C 132.167,256.5 130.833,256.5 129.5,256.5C 129.5,245.833 129.5,235.167 129.5,224.5 Z"/></g>
<g><path style="opacity:1" fill="#e8e8ea" d="M 26.5,223.5 C 29.5184,223.335 32.5184,223.502 35.5,224C 37.9969,224.412 39.9969,225.578 41.5,227.5C 41.1667,227.833 40.8333,228.167 40.5,228.5C 36.0146,225.704 31.3479,225.204 26.5,227C 22.5,229.667 22.5,232.333 26.5,235C 32.5884,236.012 37.9217,238.512 42.5,242.5C 44.9846,249.029 42.9846,253.529 36.5,256C 32.5,256.667 28.5,256.667 24.5,256C 22.4453,255.313 20.7786,254.146 19.5,252.5C 19.6667,252.167 19.8333,251.833 20,251.5C 26.6904,255.814 33.0238,255.48 39,250.5C 40.0405,247.364 39.2072,244.864 36.5,243C 31.6165,241.928 26.9499,240.261 22.5,238C 19.9035,235.683 19.0701,232.85 20,229.5C 21.914,227.144 24.0807,225.144 26.5,223.5 Z"/></g>
<g><path style="opacity:1" fill="#eeeeef" d="M 167.5,223.5 C 184.118,224.031 189.951,232.365 185,248.5C 183.833,252.333 181.333,254.833 177.5,256C 168.157,258.747 161.991,255.58 159,246.5C 156.042,236.401 158.875,228.734 167.5,223.5 Z"/></g>
<g><path style="opacity:1" fill="#262534" d="M 167.5,226.5 C 173.694,224.993 178.194,226.993 181,232.5C 182.081,239.054 181.414,245.388 179,251.5C 170.595,256.637 165.262,254.303 163,244.5C 161.441,237.648 162.941,231.648 167.5,226.5 Z"/></g>
<g><path style="opacity:1" fill="#2d2c3a" d="M 82.5,228.5 C 84.9659,232.707 86.9659,237.207 88.5,242C 84.8333,242.667 81.1667,242.667 77.5,242C 79.2671,237.532 80.9337,233.032 82.5,228.5 Z"/></g>
<g><path style="opacity:1" fill="#9b9aa1" d="M 54.5,253.5 C 59.544,253.173 64.544,253.506 69.5,254.5C 69.3764,255.107 69.0431,255.44 68.5,255.5C 63.8333,254.833 59.1667,254.167 54.5,253.5 Z"/></g>
<g><path style="opacity:1" fill="#929299" d="M 122.5,275.5 C 123.5,275.5 124.5,275.5 125.5,275.5C 125.5,279.833 125.5,284.167 125.5,288.5C 124.5,288.5 123.5,288.5 122.5,288.5C 122.5,284.167 122.5,279.833 122.5,275.5 Z"/></g>
<g><path style="opacity:1" fill="#d7d7d9" d="M 128.5,276.5 C 134.565,275.166 136.565,275.166 134.5,276.5C 133.833,292.5 133.167,292.5 132.5,276.5C 131.167,276.5 129.833,276.5 128.5,276.5 Z"/></g>
<g><path style="opacity:1" fill="#d5d4d7" d="M 87.5,275.5 C 90.1873,275.336 92.854,275.503 95.5,276C 98.033,277.916 98.033,279.916 95.5,282C 93.5273,282.495 91.5273,282.662 89.5,282.5C 89.7989,284.604 89.4656,286.604 88.5,288.5C 87.5078,284.217 87.1744,279.884 87.5,275.5 Z"/></g>
<g><path style="opacity:1" fill="#2f2e3c" d="M 89.5,276.5 C 91.1992,276.34 92.8659,276.506 94.5,277C 95.8333,278.333 95.8333,279.667 94.5,281C 92.8659,281.494 91.1992,281.66 89.5,281.5C 89.5,279.833 89.5,278.167 89.5,276.5 Z"/></g>
<g><path style="opacity:1" fill="#d5d5d7" d="M 61.5,275.5 C 64.5184,275.335 67.5184,275.502 70.5,276C 68.1902,276.497 65.8568,276.663 63.5,276.5C 63.8242,280.555 63.4909,284.555 62.5,288.5C 61.5078,284.217 61.1744,279.884 61.5,275.5 Z"/></g>
<g><path style="opacity:1" fill="#d2d2d5" d="M 79.5,281.5 C 79.5,281.833 79.5,282.167 79.5,282.5C 74.2914,282.631 72.6247,280.297 74.5,275.5C 75.2978,277.078 75.7978,278.744 76,280.5C 77.0113,281.337 78.1779,281.67 79.5,281.5 Z"/></g>
<g><path style="opacity:1" fill="#dddddf" d="M 101.5,275.5 C 102.302,276.952 102.802,278.618 103,280.5C 104.067,281.191 105.234,281.691 106.5,282C 104.888,282.72 103.388,282.554 102,281.5C 101.505,279.527 101.338,277.527 101.5,275.5 Z"/></g>
<g><path style="opacity:1" fill="#cfcfd2" d="M 108.5,275.5 C 109.787,276.871 110.453,278.705 110.5,281C 111.107,287.746 108.44,289.746 102.5,287C 104.473,286.505 106.473,286.338 108.5,286.5C 108.5,282.833 108.5,279.167 108.5,275.5 Z"/></g>
<g><path style="opacity:1" fill="#a8a7ad" d="M 79.5,282.5 C 79.5,282.167 79.5,281.833 79.5,281.5C 80.3414,279.621 80.6747,277.621 80.5,275.5C 81.5,275.5 82.5,275.5 83.5,275.5C 83.6653,279.182 83.4986,282.848 83,286.5C 80.6374,288.907 78.1374,289.074 75.5,287C 77.1341,286.506 78.8008,286.34 80.5,286.5C 80.7678,284.901 80.4345,283.568 79.5,282.5 Z"/></g>
</svg>
